# 3ds Max Wavefront OBJ Exporter v0.97b - (c)2007 guruware
# File Created: 25.04.2014 14:14:05

mtllib Joustingfence.mtl

#
# object Box001
#

v  237.4329 11.7616 7.3948
v  248.2907 11.7616 7.3948
v  248.2907 118.6050 7.3948
v  237.4330 118.6050 7.3948
v  248.2907 11.7616 -7.3948
v  248.2907 118.6050 -7.3948
v  237.4329 11.7616 -7.3948
v  237.4330 118.6050 -7.3948
v  248.2907 118.6053 7.3948
v  237.4330 118.6053 7.3948
v  248.2907 118.6053 -7.3948
v  237.4330 118.6053 -7.3948
v  237.4330 -16.4829 -7.3948
v  237.4330 -16.4829 7.3948
v  237.4329 -8.7805 -29.9374
v  248.2907 -8.7805 -29.9374
v  248.2907 -16.4829 -29.9374
v  237.4329 -16.4829 -29.9374
v  248.2907 -16.4829 7.3948
v  248.2907 -16.4829 -7.3948
v  248.2907 -8.7805 29.9374
v  237.4329 -8.7805 29.9374
v  237.4329 -16.4829 29.9374
v  248.2907 -16.4829 29.9374
v  6.3363 11.7616 7.3948
v  6.3362 118.6050 7.3948
v  -4.5215 118.6050 7.3948
v  -4.5215 11.7616 7.3948
v  -4.5215 118.6050 -7.3948
v  -4.5215 11.7616 -7.3948
v  6.3362 118.6050 -7.3948
v  6.3363 11.7616 -7.3948
v  6.3362 118.6053 7.3948
v  -4.5215 118.6053 7.3948
v  -4.5215 118.6053 -7.3948
v  6.3362 118.6053 -7.3948
v  6.3362 -16.4829 7.3948
v  6.3362 -16.4829 -7.3948
v  6.3363 -8.7805 -29.9374
v  6.3363 -16.4829 -29.9374
v  -4.5215 -16.4829 -29.9374
v  -4.5215 -8.7805 -29.9374
v  -4.5215 -16.4829 -7.3948
v  -4.5215 -16.4829 7.3948
v  -4.5215 -8.7805 29.9374
v  -4.5215 -16.4829 29.9374
v  6.3363 -16.4829 29.9374
v  6.3363 -8.7805 29.9374
# 48 vertices

vn 0.0000 -0.0000 1.0000
vn 1.0000 -0.0000 -0.0000
vn 0.0000 -0.0000 -1.0000
vn -1.0000 0.0000 -0.0000
vn 0.0000 0.0000 1.0000
vn 1.0000 0.0000 -0.0000
vn 0.0000 0.0000 -1.0000
vn -1.0000 -0.0000 -0.0000
vn 0.0000 0.9639 -0.2663
vn -1.0000 -0.0000 0.0000
vn 0.0000 0.9639 0.2663
vn 1.0000 0.0000 0.0000
vn 1.0000 -0.0000 0.0000
vn -1.0000 0.0000 0.0000
# 14 vertex normals

vt -1.1027 0.8173 0.5389
vt -1.0942 0.6061 0.0000
vt -0.0538 0.6078 1.3298
vt -0.0466 0.8238 0.0000
vt 0.7958 0.1610 0.0000
vt 0.7963 0.3397 0.0000
vt -0.0000 0.3413 0.0000
vt -0.0001 0.1618 0.0000
vt -0.0503 0.8242 0.0000
vt -0.0574 0.6088 0.5389
vt -1.0978 0.6072 0.0000
vt -1.1063 0.8177 1.3298
vt 0.7964 0.3398 0.0000
vt 0.7959 0.1611 0.0000
vt 0.0000 0.1618 0.0000
vt 0.0001 0.3413 0.0000
vt 1.3260 0.1089 1.3298
vt 2.3260 0.1089 1.3298
vt 2.3260 0.3560 1.3298
vt 1.3260 0.3560 1.3298
vt 1.0000 0.3411 0.0000
vt 1.0000 0.1603 0.0000
vt 0.0012 0.0117 0.3868
vt 0.1209 0.0117 0.3868
vt 0.1214 0.1596 0.0000
vt 0.0003 0.1594 0.0000
vt 0.9999 0.1602 0.0000
vt 0.9999 0.3411 0.0000
vt 0.1218 0.1578 0.0000
vt 0.0007 0.1576 0.0000
vt 0.0016 0.0099 0.3298
vt 0.1213 0.0099 0.3298
vt 1.0643 0.6317 0.5389
vt 1.3001 0.6317 0.5389
vt 1.3001 0.9459 0.0000
vt 1.0643 0.9459 0.0000
vt 1.0000 0.5000 0.0000
vt 0.8757 0.5000 0.0000
vt 0.8758 0.5000 0.0000
vt 1.3001 0.8525 0.0000
vt 1.0643 0.8525 0.0000
vt 1.0643 0.5383 0.3868
vt 1.3001 0.5383 0.3868
vt 1.0000 0.0000 0.0000
vt 0.8769 -0.0005 0.0000
vt 0.8768 -0.0005 0.0000
vt 1.0000 -0.0000 0.0000
# 47 texture coords

g Box001
usemtl 01___Default
s 8
f 1/1/1 2/2/1 3/3/1 4/4/1 
s 16
f 2/5/2 5/6/2 6/7/2 3/8/2 
s 32
f 5/9/3 7/10/3 8/11/3 6/12/3 
s 64
f 7/13/4 1/14/4 4/15/4 8/16/4 
s off
f 4/17/5 3/18/5 9/18/5 10/17/5 
f 3/18/6 6/19/6 11/19/6 9/18/6 
f 6/19/7 8/20/7 12/20/7 11/19/7 
f 8/20/4 4/17/4 10/17/4 12/20/4 
f 1/14/8 7/13/8 13/21/8 14/22/8 
f 15/23/7 16/24/7 17/25/7 18/26/7 
f 5/6/6 2/5/6 19/27/6 20/28/6 
f 21/29/5 22/30/5 23/31/5 24/32/5 
f 7/33/9 5/34/9 16/35/9 15/36/9 
f 5/6/6 20/28/6 17/37/6 16/38/6 
f 13/21/10 7/13/10 15/39/10 18/37/10 
f 2/40/11 1/41/11 22/42/11 21/43/11 
f 1/14/8 14/22/8 23/44/8 22/45/8 
f 19/27/12 2/5/12 21/46/12 24/47/12 
s 8
f 25/1/1 26/4/1 27/3/1 28/2/1 
s 16
f 28/5/8 27/8/8 29/7/8 30/6/8 
s 32
f 30/9/3 29/12/3 31/11/3 32/10/3 
s 64
f 32/13/6 31/16/6 26/15/6 25/14/6 
s off
f 26/17/5 33/17/5 34/18/5 27/18/5 
f 27/18/4 34/18/4 35/19/4 29/19/4 
f 29/19/7 35/19/7 36/20/7 31/20/7 
f 31/20/6 36/20/6 33/17/6 26/17/6 
f 25/14/2 37/22/2 38/21/2 32/13/2 
f 39/23/7 40/26/7 41/25/7 42/24/7 
f 30/6/4 43/28/4 44/27/4 28/5/4 
f 45/29/5 46/32/5 47/31/5 48/30/5 
f 32/33/9 39/36/9 42/35/9 30/34/9 
f 30/6/4 42/38/4 41/37/4 43/28/4 
f 38/21/13 40/37/13 39/39/13 32/13/13 
f 28/40/11 45/43/11 48/42/11 25/41/11 
f 25/14/2 48/45/2 47/44/2 37/22/2 
f 44/27/14 46/47/14 45/46/14 28/5/14 
# 36 polygons

#
# object Box002
#

v  0.9150 32.9226 3.5802
v  4.9766 21.7634 3.5802
v  242.2906 108.1385 3.5802
v  238.2289 119.2978 3.5802
v  4.9766 21.7634 -3.0317
v  242.2906 108.1385 -3.0317
v  0.9150 32.9226 -3.0317
v  238.2289 119.2978 -3.0317
# 8 vertices

vn 0.0000 0.0000 1.0000
vn 0.3420 -0.9397 -0.0000
vn 0.0000 0.0000 -1.0000
vn -0.3420 0.9397 -0.0000
# 4 vertex normals

vt 0.0026 0.7816 0.0000
vt 0.0022 0.5907 0.0000
vt 2.5526 0.5975 0.0000
vt 2.5505 0.7815 0.0000
vt 0.0025 0.6899 0.0000
vt 0.0021 0.5906 0.0000
vt 2.5480 0.5943 0.0000
vt 2.5488 0.6909 0.0000
# 8 texture coords

g Box002
usemtl 01___Default
s 8
f 49/48/15 50/49/15 51/50/15 52/51/15 
s 16
f 50/52/16 53/53/16 54/54/16 51/55/16 
s 32
f 53/48/17 55/49/17 56/50/17 54/51/17 
s 64
f 55/52/18 49/53/18 52/54/18 56/55/18 
# 4 polygons

#
# object Box005
#

v  226.4207 -4.1831 4.5147
v  259.2309 -4.1831 4.5147
v  259.2309 -4.1831 -2.8013
v  226.4207 -4.1831 -2.8013
v  218.8499 -16.4960 4.5147
v  266.8016 -16.4960 4.5147
v  266.8016 -16.4960 -2.8013
v  218.8499 -16.4960 -2.8013
v  16.4120 -4.1831 4.5147
v  16.4120 -4.1831 -2.8013
v  -16.3982 -4.1831 -2.8013
v  -16.3982 -4.1831 4.5147
v  23.9827 -16.4960 4.5147
v  -23.9689 -16.4960 4.5147
v  -23.9689 -16.4960 -2.8013
v  23.9827 -16.4960 -2.8013
# 16 vertices

vn 0.0000 1.0000 -0.0000
vn 0.0000 -0.0000 1.0000
vn 0.6752 0.7376 -0.0000
vn 0.0000 -0.0000 -1.0000
vn -0.6752 0.7376 -0.0000
# 5 vertex normals

vt -0.0145 0.6737 0.0000
vt 0.9935 0.6737 0.0000
vt 0.9935 0.9787 0.0000
vt -0.0145 0.9787 0.0000
vt 1.0381 0.6186 0.0000
vt 1.9971 0.6117 0.0000
vt 1.9957 0.9486 0.0000
vt 1.0378 0.9486 0.0000
vt 0.0027 0.0024 0.0000
vt 0.1204 0.0033 0.0000
vt 0.1205 0.1560 0.0000
vt 0.0027 0.1564 0.0000
vt 0.0027 0.0019 0.0000
vt 0.1204 0.0029 0.0000
vt 0.1205 0.1556 0.0000
vt 0.0027 0.1559 0.0000
# 16 texture coords

g Box005
usemtl 01___Default
s 4
f 57/56/19 58/57/19 59/58/19 60/59/19 
s 8
f 61/60/20 62/61/20 58/62/20 57/63/20 
s 16
f 62/64/21 63/65/21 59/66/21 58/67/21 
s 32
f 63/60/22 64/61/22 60/62/22 59/63/22 
s 64
f 64/68/23 61/69/23 57/70/23 60/71/23 
s 4
f 65/56/19 66/59/19 67/58/19 68/57/19 
s 8
f 69/60/20 65/63/20 68/62/20 70/61/20 
s 16
f 70/64/23 68/67/23 67/66/23 71/65/23 
s 32
f 71/60/22 67/63/22 66/62/22 72/61/22 
s 64
f 72/68/21 66/71/21 65/70/21 69/69/21 
# 10 polygons

#
# object Box006
#

v  237.7054 21.7634 2.9294
v  241.7671 32.9226 2.9294
v  4.4532 119.2979 2.9294
v  0.3916 108.1386 2.9294
v  241.7671 32.9226 -3.6825
v  4.4532 119.2979 -3.6825
v  237.7054 21.7634 -3.6825
v  0.3916 108.1386 -3.6825
# 8 vertices

vn 0.0000 0.0000 1.0000
vn 0.3420 0.9397 -0.0000
vn 0.0000 0.0000 -1.0000
vn -0.3420 -0.9397 -0.0000
# 4 vertex normals

vt 0.0026 0.7816 0.0000
vt 0.0022 0.5907 0.0000
vt 2.5526 0.5975 0.0000
vt 2.5505 0.7815 0.0000
vt 0.0025 0.6899 0.0000
vt 0.0021 0.5906 0.0000
vt 2.5480 0.5943 0.0000
vt 2.5488 0.6909 0.0000
# 8 texture coords

g Box006
usemtl 01___Default
s 8
f 73/72/24 74/73/24 75/74/24 76/75/24 
s 16
f 74/76/25 77/77/25 78/78/25 75/79/25 
s 32
f 77/72/26 79/73/26 80/74/26 78/75/26 
s 64
f 79/76/27 73/77/27 76/78/27 80/79/27 
# 4 polygons

#
# object Box007
#

v  -59.6914 118.4303 10.3714
v  -59.6914 118.4303 -10.3557
v  305.2898 118.4303 -10.3557
v  305.2898 118.4303 10.3714
v  -59.6914 127.1757 10.3714
v  305.2898 127.1757 10.3714
v  305.2898 127.1757 -10.3557
v  -59.6914 127.1757 -10.3557
# 8 vertices

vn 0.0000 -1.0000 -0.0000
vn 0.0000 1.0000 -0.0000
vn 0.0000 0.0000 1.0000
vn 1.0000 0.0000 -0.0000
vn 0.0000 0.0000 -1.0000
vn -1.0000 0.0000 -0.0000
# 6 vertex normals

vt 3.5702 0.5325 0.0000
vt 3.5702 0.9924 0.0000
vt 0.0060 0.9924 0.0000
vt 0.0060 0.5325 0.0000
vt 3.5702 0.7253 0.0000
vt 0.0060 0.7253 0.0000
vt 0.0015 0.0118 0.0000
vt 0.1207 0.0118 0.0000
vt 0.1207 0.1580 0.0000
vt 0.0015 0.1580 0.0000
# 10 texture coords

g Box007
usemtl 01___Default
s 2
f 81/80/28 82/81/28 83/82/28 84/83/28 
s 4
f 85/83/29 86/80/29 87/81/29 88/82/29 
s 8
f 81/83/30 84/80/30 86/84/30 85/85/30 
s 16
f 84/86/31 83/87/31 87/88/31 86/89/31 
s 32
f 83/83/32 82/80/32 88/84/32 87/85/32 
s 64
f 82/86/33 81/87/33 85/88/33 88/89/33 
# 6 polygons

