# 3ds Max Wavefront OBJ Exporter v0.97b - (c)2007 guruware
# File Created: 09.05.2014 20:53:46

mtllib knightdummy.mtl

#
# object Plane002
#

v  19.9534 -17.3831 8.3804
v  23.2845 -22.9493 8.3804
v  31.0877 -15.6558 8.3804
v  30.0124 -39.2544 8.3804
v  52.3069 -39.2584 8.3804
v  34.6372 -9.8415 8.3804
v  52.0981 -28.1121 8.3804
v  44.9239 -9.8415 8.3804
v  56.8110 -21.8739 8.3804
v  27.0046 -1.9322 8.3804
v  23.7475 -2.4589 8.3804
v  34.6372 -0.0000 8.3804
v  44.9239 -0.0000 8.3804
v  54.5335 -2.7382 8.3804
v  58.8066 4.3985 8.3804
v  -1.3703 -11.9214 8.3804
v  17.7717 -2.8497 8.3804
v  26.6477 6.1708 8.3804
v  34.6372 9.8415 8.3804
v  44.9239 9.8415 8.3804
v  62.6385 16.6641 8.3804
v  62.6359 19.4077 8.3804
v  31.0147 10.9873 8.3804
v  24.8306 10.7719 8.3804
v  21.0436 9.1946 8.3804
v  39.4787 35.7007 8.3804
v  36.6853 34.8303 8.3804
v  43.3177 32.9126 8.3804
v  41.6590 35.0995 8.3804
v  61.0233 21.0750 8.3804
v  55.5035 22.5371 8.3804
v  13.5988 2.9274 8.3804
v  -3.8613 -8.5914 8.3804
v  -4.6491 -11.1051 8.3804
v  21.5301 -2.0935 8.3804
v  26.5048 -27.1632 8.3804
v  55.8532 -6.0863 8.3804
v  46.9067 24.0263 8.3804
v  44.9767 26.2730 8.3804
v  34.5471 18.9161 8.3804
v  33.8492 29.3017 8.3804
v  29.5104 21.3616 8.3804
v  27.3829 16.1456 8.3804
v  50.5429 22.7833 8.3804
v  58.9786 -16.1487 8.3804
v  19.9534 -17.3831 6.6976
v  23.2845 -22.9493 6.6976
v  26.5048 -27.1632 6.6976
v  30.0124 -39.2544 6.6976
v  52.3069 -39.2584 6.6976
v  52.0981 -28.1121 6.6976
v  58.9786 -16.1487 6.6976
v  55.8532 -6.0863 6.6976
v  56.8110 -21.8739 6.6976
v  23.7475 -2.4589 6.6976
v  54.5335 -2.7382 6.6976
v  58.8066 4.3985 6.6976
v  -1.3703 -11.9214 6.6976
v  17.7717 -2.8497 6.6976
v  62.6385 16.6641 6.6976
v  62.6359 19.4077 6.6976
v  -3.8613 -8.5914 6.6976
v  -4.6491 -11.1051 6.6976
v  33.8492 29.3017 6.6976
v  29.5104 21.3616 6.6976
v  39.4787 35.7007 6.6976
v  36.6853 34.8303 6.6976
v  43.3177 32.9126 6.6976
v  41.6590 35.0995 6.6976
v  44.9767 26.2730 6.6976
v  61.0233 21.0750 6.6976
v  55.5035 22.5371 6.6976
v  13.5988 2.9274 6.6976
v  21.0436 9.1946 6.6976
v  21.5301 -2.0935 6.6976
v  50.5429 22.7833 6.6976
v  46.9067 24.0263 6.6976
v  27.3829 16.1456 6.6976
v  24.8306 10.7719 6.6976
# 79 vertices

vn 0.0000 -0.0000 1.0000
vn -0.8581 -0.5135 -0.0000
vn -0.9604 -0.2786 -0.0000
vn -0.0002 -1.0000 -0.0000
vn 0.9998 0.0187 0.0000
vn 0.9550 0.2966 0.0000
vn 0.7979 -0.6028 -0.0000
vn -0.9692 0.2464 0.0000
vn 0.8580 -0.5137 -0.0000
vn 0.4283 -0.9037 -0.0000
vn 1.0000 0.0009 0.0000
vn -0.9542 0.2990 0.0000
vn -0.8775 0.4795 0.0000
vn -0.2975 0.9547 0.0000
vn 0.7968 0.6043 0.0000
vn 0.9702 0.2424 0.0000
vn 0.2560 0.9667 0.0000
vn -0.5507 0.8347 0.0000
vn -0.6440 0.7650 0.0000
vn 0.1973 -0.9804 -0.0000
vn -0.7945 -0.6072 -0.0000
vn 0.9352 -0.3541 -0.0000
vn 0.9545 -0.2982 -0.0000
vn 0.3235 0.9462 0.0000
vn 0.2658 0.9640 0.0000
vn -0.8898 0.4564 0.0000
vn -0.2416 -0.9704 -0.0000
vn -0.9033 0.4290 0.0000
vn -0.3845 0.9231 0.0000
vn -0.9259 0.3777 0.0000
vn 0.7585 0.6516 0.0000
vn 0.9303 0.3667 0.0000
vn 0.7188 0.6952 0.0000
vn 0.0496 0.9988 0.0000
vn -0.1626 -0.9867 -0.0000
# 35 vertex normals

vt 0.3172 0.2845 0.0000
vt 0.3579 0.2142 0.0000
vt 0.4533 0.3064 0.0000
vt 0.4401 0.0083 0.0000
vt 0.7126 0.0082 0.0000
vt 0.4967 0.3798 0.0000
vt 0.7100 0.1490 0.0000
vt 0.6224 0.3798 0.0000
vt 0.7676 0.2278 0.0000
vt 0.4034 0.4797 0.0000
vt 0.3636 0.4730 0.0000
vt 0.4967 0.5041 0.0000
vt 0.6224 0.5041 0.0000
vt 0.7398 0.4695 0.0000
vt 0.7920 0.5596 0.0000
vt 0.0566 0.3535 0.0000
vt 0.2906 0.4681 0.0000
vt 0.3990 0.5820 0.0000
vt 0.4967 0.6284 0.0000
vt 0.6224 0.6284 0.0000
vt 0.8388 0.7146 0.0000
vt 0.8388 0.7492 0.0000
vt 0.4524 0.6429 0.0000
vt 0.3768 0.6401 0.0000
vt 0.3305 0.6202 0.0000
vt 0.5558 0.9550 0.0000
vt 0.5217 0.9440 0.0000
vt 0.6027 0.9198 0.0000
vt 0.5825 0.9474 0.0000
vt 0.8191 0.7703 0.0000
vt 0.7517 0.7887 0.0000
vt 0.2396 0.5411 0.0000
vt 0.0262 0.3956 0.0000
vt 0.0166 0.3638 0.0000
vt 0.3365 0.4776 0.0000
vt 0.3973 0.1610 0.0000
vt 0.7559 0.4272 0.0000
vt 0.6466 0.8075 0.0000
vt 0.6230 0.8359 0.0000
vt 0.4956 0.7430 0.0000
vt 0.4870 0.8742 0.0000
vt 0.4340 0.7739 0.0000
vt 0.4080 0.7080 0.0000
vt 0.6910 0.7918 0.0000
vt 0.7941 0.3001 0.0000
# 45 texture coords

g Plane002
usemtl 01___Default
s 1
f 1/1/1 2/2/1 3/3/1 
f 4/4/1 5/5/1 6/6/1 3/3/1 
f 5/5/1 7/7/1 8/8/1 6/6/1 
f 8/8/1 7/7/1 9/9/1 
f 1/1/1 3/3/1 10/10/1 11/11/1 
f 3/3/1 6/6/1 12/12/1 10/10/1 
f 6/6/1 8/8/1 13/13/1 12/12/1 
f 8/8/1 14/14/1 15/15/1 13/13/1 
f 13/13/1 15/15/1 13/13/1 
f 16/16/1 17/17/1 18/18/1 
f 10/10/1 12/12/1 19/19/1 18/18/1 
f 12/12/1 13/13/1 20/20/1 19/19/1 
f 20/20/1 13/13/1 13/13/1 21/21/1 
f 20/20/1 21/21/1 22/22/1 
f 23/23/1 24/24/1 25/25/1 18/18/1 
f 19/19/1 26/26/1 27/27/1 
f 19/19/1 20/20/1 28/28/1 29/29/1 
f 20/20/1 30/30/1 31/31/1 20/20/1 
f 32/32/1 33/33/1 34/34/1 18/18/1 
f 25/25/1 32/32/1 18/18/1 
f 17/17/1 35/35/1 18/18/1 
f 36/36/1 4/4/1 3/3/1 2/2/1 
f 37/37/1 14/14/1 8/8/1 
f 15/15/1 21/21/1 13/13/1 
f 38/38/1 39/39/1 20/20/1 
f 39/39/1 28/28/1 20/20/1 
f 29/29/1 26/26/1 19/19/1 
f 23/23/1 18/18/1 19/19/1 
f 34/34/1 16/16/1 18/18/1 
f 40/40/1 19/19/1 27/27/1 41/41/1 
f 40/40/1 41/41/1 42/42/1 
f 19/19/1 40/40/1 23/23/1 
f 40/40/1 43/43/1 24/24/1 23/23/1 
f 42/42/1 43/43/1 40/40/1 
f 20/20/1 44/44/1 38/38/1 20/20/1 
f 45/45/1 37/37/1 8/8/1 9/9/1 
f 22/22/1 30/30/1 20/20/1 
f 31/31/1 44/44/1 20/20/1 
f 11/11/1 10/10/1 18/18/1 35/35/1 
s off
f 2/2/2 1/1/2 46/1/2 47/2/2 
f 4/4/3 36/36/3 48/36/3 49/4/3 
f 5/5/4 4/4/4 49/4/4 50/5/4 
f 7/7/5 5/5/5 50/5/5 51/7/5 
f 37/37/6 45/45/6 52/45/6 53/37/6 
f 9/9/7 7/7/7 51/7/7 54/9/7 
f 1/1/8 11/11/8 55/11/8 46/1/8 
f 15/15/9 14/14/9 56/14/9 57/15/9 
f 17/17/10 16/16/10 58/16/10 59/17/10 
f 22/22/11 21/21/11 60/21/11 61/22/11 
f 34/34/12 33/33/12 62/33/12 63/34/12 
f 42/42/13 41/41/13 64/41/13 65/42/13 
f 27/27/14 26/26/14 66/26/14 67/27/14 
f 29/29/15 28/28/15 68/28/15 69/29/15 
f 28/28/16 39/39/16 70/39/16 68/28/16 
f 31/31/17 30/30/17 71/30/17 72/31/17 
f 33/33/18 32/32/18 73/32/18 62/33/18 
f 32/32/19 25/25/19 74/25/19 73/32/19 
f 35/35/20 17/17/20 59/17/20 75/35/20 
f 36/36/21 2/2/21 47/2/21 48/36/21 
f 45/45/22 9/9/22 54/9/22 52/45/22 
f 21/21/23 15/15/23 57/15/23 60/21/23 
f 38/38/24 44/44/24 76/44/24 77/38/24 
f 26/26/25 29/29/25 69/29/25 66/26/25 
f 41/41/26 27/27/26 67/27/26 64/41/26 
f 16/16/27 34/34/27 63/34/27 58/16/27 
f 24/24/28 43/43/28 78/43/28 79/24/28 
f 25/25/29 24/24/29 79/24/29 74/25/29 
f 43/43/30 42/42/30 65/42/30 78/43/30 
f 39/39/31 38/38/31 77/38/31 70/39/31 
f 14/14/32 37/37/32 53/37/32 56/14/32 
f 30/30/33 22/22/33 61/22/33 71/30/33 
f 44/44/34 31/31/34 72/31/34 76/44/34 
f 11/11/35 35/35/35 75/35/35 55/11/35 
# 53 polygons - 20 triangles

